<mxfile host="Electron" agent="Mozilla/5.0 (Windows NT 10.0; Win64; x64) AppleWebKit/537.36 (KHTML, like Gecko) draw.io/24.7.8 Chrome/128.0.6613.36 Electron/32.0.1 Safari/537.36" version="24.7.8">
  <diagram name="Page-1" id="wbFuVogU6JfLVyGnAgpN">
    <mxGraphModel dx="1098" dy="648" grid="1" gridSize="10" guides="1" tooltips="1" connect="1" arrows="1" fold="1" page="1" pageScale="1" pageWidth="850" pageHeight="1100" math="0" shadow="0">
      <root>
        <mxCell id="0" />
        <mxCell id="1" parent="0" />
        <mxCell id="khgTuGU63pHsHaj_h3_G-1" value="Products&lt;div&gt;&lt;br&gt;&lt;/div&gt;" style="swimlane;fontStyle=1;align=center;verticalAlign=top;childLayout=stackLayout;horizontal=1;startSize=26;horizontalStack=0;resizeParent=1;resizeParentMax=0;resizeLast=0;collapsible=1;marginBottom=0;whiteSpace=wrap;html=1;" parent="1" vertex="1">
          <mxGeometry x="260" y="40" width="250" height="240" as="geometry" />
        </mxCell>
        <mxCell id="khgTuGU63pHsHaj_h3_G-2" value="- CustomerName: String&lt;div&gt;- CustomerSurname: String&lt;/div&gt;&lt;div&gt;- ProductName: String&lt;/div&gt;&lt;div&gt;- ProductPrice: Decimal/Double&lt;/div&gt;&lt;div&gt;- ProductQuantity: Integer&lt;/div&gt;" style="text;strokeColor=none;fillColor=none;align=left;verticalAlign=top;spacingLeft=4;spacingRight=4;overflow=hidden;rotatable=0;points=[[0,0.5],[1,0.5]];portConstraint=eastwest;whiteSpace=wrap;html=1;" parent="khgTuGU63pHsHaj_h3_G-1" vertex="1">
          <mxGeometry y="26" width="250" height="214" as="geometry" />
        </mxCell>
        <mxCell id="khgTuGU63pHsHaj_h3_G-4" value="+ Total Amount(type): Decimal/Double&lt;div&gt;+ VAT: Decimal/Double&lt;/div&gt;&lt;div&gt;+ Discount:Decimal/Double&lt;/div&gt;&lt;div&gt;+ Final Amount: Decimal/Double&lt;/div&gt;" style="text;strokeColor=none;fillColor=none;align=left;verticalAlign=top;spacingLeft=4;spacingRight=4;overflow=hidden;rotatable=0;points=[[0,0.5],[1,0.5]];portConstraint=eastwest;whiteSpace=wrap;html=1;" parent="1" vertex="1">
          <mxGeometry x="260" y="160" width="250" height="170" as="geometry" />
        </mxCell>
        <mxCell id="xgjBoabNetx4N75YhA6C-1" value="" style="endArrow=none;html=1;rounded=0;entryX=1;entryY=0.012;entryDx=0;entryDy=0;entryPerimeter=0;" edge="1" parent="1" target="khgTuGU63pHsHaj_h3_G-4">
          <mxGeometry width="50" height="50" relative="1" as="geometry">
            <mxPoint x="260" y="160" as="sourcePoint" />
            <mxPoint x="400" y="160" as="targetPoint" />
          </mxGeometry>
        </mxCell>
        <mxCell id="xgjBoabNetx4N75YhA6C-2" value="" style="endArrow=none;html=1;rounded=0;" edge="1" parent="1">
          <mxGeometry width="50" height="50" relative="1" as="geometry">
            <mxPoint x="385" y="401" as="sourcePoint" />
            <mxPoint x="384.5" y="281" as="targetPoint" />
          </mxGeometry>
        </mxCell>
        <mxCell id="xgjBoabNetx4N75YhA6C-3" value="Beverage&lt;div&gt;&lt;br&gt;&lt;/div&gt;" style="swimlane;fontStyle=1;align=center;verticalAlign=top;childLayout=stackLayout;horizontal=1;startSize=26;horizontalStack=0;resizeParent=1;resizeParentMax=0;resizeLast=0;collapsible=1;marginBottom=0;whiteSpace=wrap;html=1;" vertex="1" parent="1">
          <mxGeometry x="20" y="440" width="160" height="160" as="geometry" />
        </mxCell>
        <mxCell id="xgjBoabNetx4N75YhA6C-4" value="Category Name" style="text;strokeColor=none;fillColor=none;align=left;verticalAlign=top;spacingLeft=4;spacingRight=4;overflow=hidden;rotatable=0;points=[[0,0.5],[1,0.5]];portConstraint=eastwest;whiteSpace=wrap;html=1;" vertex="1" parent="xgjBoabNetx4N75YhA6C-3">
          <mxGeometry y="26" width="160" height="26" as="geometry" />
        </mxCell>
        <mxCell id="xgjBoabNetx4N75YhA6C-5" value="" style="line;strokeWidth=1;fillColor=none;align=left;verticalAlign=middle;spacingTop=-1;spacingLeft=3;spacingRight=3;rotatable=0;labelPosition=right;points=[];portConstraint=eastwest;strokeColor=inherit;" vertex="1" parent="xgjBoabNetx4N75YhA6C-3">
          <mxGeometry y="52" width="160" height="8" as="geometry" />
        </mxCell>
        <mxCell id="xgjBoabNetx4N75YhA6C-6" value="+ Total Amount(type): Decimal/Double&lt;div&gt;+ VAT: Decimal/Double&lt;/div&gt;&lt;div&gt;+ Discount:Decimal/Double&lt;/div&gt;&lt;div&gt;+ Final Amount: Decimal/Double&lt;/div&gt;" style="text;strokeColor=none;fillColor=none;align=left;verticalAlign=top;spacingLeft=4;spacingRight=4;overflow=hidden;rotatable=0;points=[[0,0.5],[1,0.5]];portConstraint=eastwest;whiteSpace=wrap;html=1;" vertex="1" parent="xgjBoabNetx4N75YhA6C-3">
          <mxGeometry y="60" width="160" height="100" as="geometry" />
        </mxCell>
        <mxCell id="xgjBoabNetx4N75YhA6C-7" value="Fruit" style="swimlane;fontStyle=1;align=center;verticalAlign=top;childLayout=stackLayout;horizontal=1;startSize=26;horizontalStack=0;resizeParent=1;resizeParentMax=0;resizeLast=0;collapsible=1;marginBottom=0;whiteSpace=wrap;html=1;" vertex="1" parent="1">
          <mxGeometry x="305" y="440" width="160" height="160" as="geometry" />
        </mxCell>
        <mxCell id="xgjBoabNetx4N75YhA6C-8" value="Category Name" style="text;strokeColor=none;fillColor=none;align=left;verticalAlign=top;spacingLeft=4;spacingRight=4;overflow=hidden;rotatable=0;points=[[0,0.5],[1,0.5]];portConstraint=eastwest;whiteSpace=wrap;html=1;" vertex="1" parent="xgjBoabNetx4N75YhA6C-7">
          <mxGeometry y="26" width="160" height="26" as="geometry" />
        </mxCell>
        <mxCell id="xgjBoabNetx4N75YhA6C-9" value="" style="line;strokeWidth=1;fillColor=none;align=left;verticalAlign=middle;spacingTop=-1;spacingLeft=3;spacingRight=3;rotatable=0;labelPosition=right;points=[];portConstraint=eastwest;strokeColor=inherit;" vertex="1" parent="xgjBoabNetx4N75YhA6C-7">
          <mxGeometry y="52" width="160" height="8" as="geometry" />
        </mxCell>
        <mxCell id="xgjBoabNetx4N75YhA6C-10" value="+ Total Amount(type): Decimal/Double&lt;div&gt;+ VAT: Decimal/Double&lt;/div&gt;&lt;div&gt;+ Discount:Decimal/Double&lt;/div&gt;&lt;div&gt;+ Final Amount: Decimal/Double&lt;/div&gt;" style="text;strokeColor=none;fillColor=none;align=left;verticalAlign=top;spacingLeft=4;spacingRight=4;overflow=hidden;rotatable=0;points=[[0,0.5],[1,0.5]];portConstraint=eastwest;whiteSpace=wrap;html=1;" vertex="1" parent="xgjBoabNetx4N75YhA6C-7">
          <mxGeometry y="60" width="160" height="100" as="geometry" />
        </mxCell>
        <mxCell id="xgjBoabNetx4N75YhA6C-11" value="Babies&lt;div&gt;&lt;br&gt;&lt;/div&gt;" style="swimlane;fontStyle=1;align=center;verticalAlign=top;childLayout=stackLayout;horizontal=1;startSize=26;horizontalStack=0;resizeParent=1;resizeParentMax=0;resizeLast=0;collapsible=1;marginBottom=0;whiteSpace=wrap;html=1;" vertex="1" parent="1">
          <mxGeometry x="630" y="440" width="160" height="160" as="geometry" />
        </mxCell>
        <mxCell id="xgjBoabNetx4N75YhA6C-12" value="+ Category Name" style="text;strokeColor=none;fillColor=none;align=left;verticalAlign=top;spacingLeft=4;spacingRight=4;overflow=hidden;rotatable=0;points=[[0,0.5],[1,0.5]];portConstraint=eastwest;whiteSpace=wrap;html=1;" vertex="1" parent="xgjBoabNetx4N75YhA6C-11">
          <mxGeometry y="26" width="160" height="26" as="geometry" />
        </mxCell>
        <mxCell id="xgjBoabNetx4N75YhA6C-13" value="" style="line;strokeWidth=1;fillColor=none;align=left;verticalAlign=middle;spacingTop=-1;spacingLeft=3;spacingRight=3;rotatable=0;labelPosition=right;points=[];portConstraint=eastwest;strokeColor=inherit;" vertex="1" parent="xgjBoabNetx4N75YhA6C-11">
          <mxGeometry y="52" width="160" height="8" as="geometry" />
        </mxCell>
        <mxCell id="xgjBoabNetx4N75YhA6C-14" value="+ Total Amount(type): Decimal/Double&lt;div&gt;+ VAT: Decimal/Double&lt;/div&gt;&lt;div&gt;+ Discount:Decimal/Double&lt;/div&gt;&lt;div&gt;+ Final Amount: Decimal/Double&lt;/div&gt;" style="text;strokeColor=none;fillColor=none;align=left;verticalAlign=top;spacingLeft=4;spacingRight=4;overflow=hidden;rotatable=0;points=[[0,0.5],[1,0.5]];portConstraint=eastwest;whiteSpace=wrap;html=1;" vertex="1" parent="xgjBoabNetx4N75YhA6C-11">
          <mxGeometry y="60" width="160" height="100" as="geometry" />
        </mxCell>
        <mxCell id="xgjBoabNetx4N75YhA6C-15" value="" style="endArrow=none;html=1;rounded=0;" edge="1" parent="1">
          <mxGeometry width="50" height="50" relative="1" as="geometry">
            <mxPoint x="80" y="400" as="sourcePoint" />
            <mxPoint x="720" y="400" as="targetPoint" />
          </mxGeometry>
        </mxCell>
        <mxCell id="xgjBoabNetx4N75YhA6C-16" value="" style="endArrow=none;html=1;rounded=0;" edge="1" parent="1">
          <mxGeometry width="50" height="50" relative="1" as="geometry">
            <mxPoint x="80" y="440" as="sourcePoint" />
            <mxPoint x="80" y="400" as="targetPoint" />
          </mxGeometry>
        </mxCell>
        <mxCell id="xgjBoabNetx4N75YhA6C-17" value="" style="endArrow=none;html=1;rounded=0;" edge="1" parent="1">
          <mxGeometry width="50" height="50" relative="1" as="geometry">
            <mxPoint x="385.5" y="440" as="sourcePoint" />
            <mxPoint x="385.5" y="400" as="targetPoint" />
          </mxGeometry>
        </mxCell>
        <mxCell id="xgjBoabNetx4N75YhA6C-18" value="" style="endArrow=none;html=1;rounded=0;" edge="1" parent="1">
          <mxGeometry width="50" height="50" relative="1" as="geometry">
            <mxPoint x="720" y="440" as="sourcePoint" />
            <mxPoint x="720" y="400" as="targetPoint" />
          </mxGeometry>
        </mxCell>
      </root>
    </mxGraphModel>
  </diagram>
</mxfile>
